<svg xmlns="http://www.w3.org/2000/svg" xmlns:svg="http://www.w3.org/2000/svg" id="svg8162" width="96" height="77.813" version="1.1" viewBox="0 0 90 72.949"><defs id="defs8164"><clipPath id="clipPath5836" clipPathUnits="userSpaceOnUse"><rect id="rect5838" width="1352" height="383.141" x="1501.569" y="-1821.422" style="fill:#855f04;fill-opacity:1;stroke:none;stroke-width:.5;stroke-miterlimit:4;stroke-dasharray:none"/></clipPath></defs><metadata id="metadata8167"/><g id="layer1" transform="translate(3533.3596,1773.8131)"><g id="g5938" transform="matrix(0.96878364,0,0,0.96878364,-3938.4051,-416.48647)"><g style="fill:#272822;fill-opacity:1" id="g5880" transform="translate(414.597,-1413.3627)"><path style="fill:#272822;fill-opacity:1" id="path5870" d="m 10.7,87.6 78.5,0 c 4,0 7.2,-3.2 7.2,-7.2 l 0,-60.9 c 0,-4 -3.2,-7.2 -7.2,-7.2 l -78.5,0 c -4,0 -7.2,3.2 -7.2,7.2 l 0,60.9 c 0.1,4 3.3,7.2 7.2,7.2 z m 78.6,-5 -78.6,0 c -1.2,0 -2.2,-1 -2.2,-2.2 l 0,-45.5 82.9,0 0,45.5 c 0,1.3 -0.9,2.2 -2.1,2.2 z m -78.6,-65.2 78.5,0 c 1.2,0 2.2,1 2.2,2.2 l 0,10.4 -82.8,0 0,-10.5 c 0,-1.2 0.9,-2.1 2.1,-2.1 z m 11.2,6.2 c 0,-1.7 1.4,-3 3,-3 1.6,0 3,1.4 3,3 0,1.7 -1.4,3 -3,3 -1.6,0 -3,-1.3 -3,-3 z m 10,0 c 0,-1.7 1.4,-3 3,-3 1.6,0 3,1.4 3,3 0,1.7 -1.4,3 -3,3 -1.6,0 -3,-1.3 -3,-3 z m -20,0 c 0,-1.7 1.4,-3 3,-3 1.7,0 3,1.4 3,3 0,1.7 -1.4,3 -3,3 -1.6,0.1 -3,-1.3 -3,-3 z"/><g id="g5928"><path style="fill:none;fill-rule:evenodd;stroke:#ffa022;stroke-width:4;stroke-linecap:round;stroke-linejoin:round;stroke-miterlimit:4;stroke-dasharray:none;stroke-opacity:1" id="path5924" d="m 49.08246,53.2711 0,12.8125"/><path style="fill:none;fill-rule:evenodd;stroke:#ffa022;stroke-width:4;stroke-linecap:round;stroke-linejoin:round;stroke-miterlimit:4;stroke-dasharray:none;stroke-opacity:1" id="path5926" d="m 42.58246,59.5836 12.8125,0"/></g><g id="g5932" transform="translate(20,0)"><path id="path5934" d="m 49.08246,53.2711 0,12.8125" style="fill:none;fill-rule:evenodd;stroke:#ffa022;stroke-width:4;stroke-linecap:round;stroke-linejoin:round;stroke-miterlimit:4;stroke-dasharray:none;stroke-opacity:1"/><path id="path5936" d="m 42.58246,59.5836 12.8125,0" style="fill:none;fill-rule:evenodd;stroke:#ffa022;stroke-width:4;stroke-linecap:round;stroke-linejoin:round;stroke-miterlimit:4;stroke-dasharray:none;stroke-opacity:1"/></g></g><path id="path5921" d="m 450.41367,-1361.6068 c 0,0 -0.18057,-2.1464 -2.57767,-2.7714 -10.8617,-2.5325 -12.56172,13.1002 -6.92024,18.226 1.77116,1.6093 7.81329,2.7801 9.85774,-0.6635" style="fill:none;fill-rule:evenodd;stroke:#c85637;stroke-width:4;stroke-linecap:round;stroke-linejoin:round;stroke-miterlimit:4;stroke-dasharray:none;stroke-opacity:1"/></g></g></svg>