<svg xmlns="http://www.w3.org/2000/svg" xmlns:svg="http://www.w3.org/2000/svg" id="svg8162" width="83.292" height="79.905" version="1.1" viewBox="0 0 78.086 74.91"><metadata id="metadata8167"/><g id="layer1" transform="translate(1024.7573,39.378732)"><g id="g7116" transform="matrix(0.89623358,0,0,0.89623358,-218.70545,2201.0797)"><g style="fill:#fff;fill-opacity:1;stroke:#272822;stroke-opacity:1" id="g7062" transform="translate(-1088.0328,-2308.4416)"><path style="fill:#fff;fill-opacity:1;stroke:#272822;stroke-width:3;stroke-linejoin:round;stroke-miterlimit:4;stroke-dasharray:none;stroke-opacity:1" id="path7054" d="m 223.48878,-173.25135 c 0,-9.205 -7.462,-16.667 -16.666,-16.667 -9.205,0 -16.667,7.462 -16.667,16.667 l 0,63.888 10.667,0 17.111,0 0,-18.055 -8.154,0 13.71,-34.891 0,-10.942 z"/></g><g style="fill:#fff;fill-opacity:1;stroke:#c85637;stroke-width:3;stroke-linejoin:round;stroke-miterlimit:4;stroke-dasharray:none;stroke-opacity:1" id="g7046" transform="translate(-913.75,-2498.3313)"><path style="fill:#fff;fill-opacity:1;stroke:#c85637;stroke-width:3;stroke-linejoin:round;stroke-miterlimit:4;stroke-dasharray:none;stroke-opacity:1" id="path7048" d="M 90.63,33.119 63.89,22.221 37.147,33.119 l -9.37,23.826 5.556,0 0,23.61 19.444,0 22.223,0 19.444,0 0,-23.61 5.556,0 z"/></g><g style="fill:#ffa022;fill-opacity:1" id="g6953" transform="matrix(0.75176038,0,0,0.75176038,-868.24878,-2461.3802)"><g style="fill:#ffa022;fill-opacity:1" id="g6887"><g style="fill:#ffa022;fill-opacity:1" id="g6889"><rect style="fill:#ffa022;fill-opacity:1" id="rect6891" width="15.1" height="15.1" x="16.4" y="16.4"/><path style="fill:#ffa022;fill-opacity:1" id="path6893" d="M 9.1,9.1 9.1,39 39,39 39,9.1 9.1,9.1 Z m 24.5,24.5 -19.2,0 0,-19.2 19.1,0 0,19.2 z"/></g><g style="fill:#ffa022;fill-opacity:1" id="g6895"><polygon style="fill:#ffa022;fill-opacity:1" id="polygon6897" points="16 2.5 13 2.5 13 .5 18 .5 18 10.1 16 10.1"/></g><g style="fill:#ffa022;fill-opacity:1" id="g6899"><rect style="fill:#ffa022;fill-opacity:1" id="rect6901" width="2" height="8.6" x="23" y="1.5"/></g><g style="fill:#ffa022;fill-opacity:1" id="g6903"><polygon style="fill:#ffa022;fill-opacity:1" id="polygon6905" points="30 .5 35 .5 35 2.5 32 2.5 32 10.1 30 10.1"/></g><g style="fill:#ffa022;fill-opacity:1" id="g6907"><polygon style="fill:#ffa022;fill-opacity:1" id="polygon6909" points="13 45.5 16 45.5 16 37.9 18 37.9 18 47.5 13 47.5"/></g><g style="fill:#ffa022;fill-opacity:1" id="g6911"><rect style="fill:#ffa022;fill-opacity:1" id="rect6913" width="2" height="8.6" x="23" y="37.9"/></g><g style="fill:#ffa022;fill-opacity:1" id="g6915"><polygon style="fill:#ffa022;fill-opacity:1" id="polygon6917" points="30 37.9 32 37.9 32 45.5 35 45.5 35 47.5 30 47.5"/></g><g style="fill:#ffa022;fill-opacity:1" id="g6919"><polygon style="fill:#ffa022;fill-opacity:1" id="polygon6921" points="45.5 32 37.9 32 37.9 30 47.5 30 47.5 35 45.5 35"/></g><g style="fill:#ffa022;fill-opacity:1" id="g6923"><rect style="fill:#ffa022;fill-opacity:1" id="rect6925" width="8.6" height="2" x="37.9" y="23"/></g><g style="fill:#ffa022;fill-opacity:1" id="g6927"><polygon style="fill:#ffa022;fill-opacity:1" id="polygon6929" points="37.9 16 45.5 16 45.5 13 47.5 13 47.5 18 37.9 18"/></g><g style="fill:#ffa022;fill-opacity:1" id="g6931"><polygon style="fill:#ffa022;fill-opacity:1" id="polygon6933" points=".5 30 10.1 30 10.1 32 2.5 32 2.5 35 .5 35"/></g><g style="fill:#ffa022;fill-opacity:1" id="g6935"><rect style="fill:#ffa022;fill-opacity:1" id="rect6937" width="8.6" height="2" x="1.5" y="23"/></g><g style="fill:#ffa022;fill-opacity:1" id="g6939"><polygon style="fill:#ffa022;fill-opacity:1" id="polygon6941" points=".5 13 2.5 13 2.5 16 10.1 16 10.1 18 .5 18"/></g></g></g></g></g></svg>