<svg xmlns="http://www.w3.org/2000/svg" xmlns:svg="http://www.w3.org/2000/svg" id="svg8162" width="96" height="96" version="1.1" viewBox="0 0 90 90"><metadata id="metadata8167"/><g id="layer1" transform="translate(1829.2686,393.19899)"><g id="g5437" transform="matrix(1.5000001,0,0,1.5000001,-1829.2686,-393.19899)" style="fill:#ffa022;fill-opacity:1"><g id="g5343" style="fill:#ffa022;fill-opacity:1"><path id="path5345" d="M 11,7 C 11,4.79 9.21,3 7,3 4.79,3 3,4.79 3,7 c 0,2.21 1.79,4 4,4 2.21,0 4,-1.79 4,-4 z M 7,9 C 5.9,9 5,8.1 5,7 5,5.9 5.9,5 7,5 8.1,5 9,5.9 9,7 9,8.1 8.1,9 7,9 Z" style="fill:#ffa022;fill-opacity:1"/><path id="path5347" d="m 16,11 c 2.21,0 4,-1.79 4,-4 0,-2.21 -1.79,-4 -4,-4 -2.21,0 -4,1.79 -4,4 0,2.21 1.79,4 4,4 z m 0,-6 c 1.1,0 2,0.9 2,2 0,1.1 -0.9,2 -2,2 -1.1,0 -2,-0.9 -2,-2 0,-1.1 0.9,-2 2,-2 z" style="fill:#ffa022;fill-opacity:1"/><path id="path5349" d="m 25,11 c 2.21,0 4,-1.79 4,-4 0,-2.21 -1.79,-4 -4,-4 -2.21,0 -4,1.79 -4,4 0,2.21 1.79,4 4,4 z m 0,-6 c 1.1,0 2,0.9 2,2 0,1.1 -0.9,2 -2,2 -1.1,0 -2,-0.9 -2,-2 0,-1.1 0.9,-2 2,-2 z" style="fill:#ffa022;fill-opacity:1"/><path id="path5351" d="m 0,0 0,12 0,2 0,46 9,0 51,0 L 60,14 60,0 0,0 Z M 2,2 58,2 58,12 9,12 2,12 2,2 Z m 0,56 0,-44 5,0 0,44 -5,0 z m 56,0 -49,0 0,-44 49,0 0,44 z" style="fill:#ffa022;fill-opacity:1"/><path id="path5353" d="m 5,17 -1,0 c -0.55,0 -1,0.45 -1,1 0,0.55 0.45,1 1,1 l 1,0 C 5.55,19 6,18.55 6,18 6,17.45 5.55,17 5,17 Z" style="fill:#ffa022;fill-opacity:1"/><path id="path5355" d="m 5,21 -1,0 c -0.55,0 -1,0.45 -1,1 0,0.55 0.45,1 1,1 l 1,0 C 5.55,23 6,22.55 6,22 6,21.45 5.55,21 5,21 Z" style="fill:#ffa022;fill-opacity:1"/><path id="path5357" d="m 5,25 -1,0 c -0.55,0 -1,0.45 -1,1 0,0.55 0.45,1 1,1 l 1,0 C 5.55,27 6,26.55 6,26 6,25.45 5.55,25 5,25 Z" style="fill:#ffa022;fill-opacity:1"/><path id="path5359" d="m 5,29 -1,0 c -0.55,0 -1,0.45 -1,1 0,0.55 0.45,1 1,1 l 1,0 C 5.55,31 6,30.55 6,30 6,29.45 5.55,29 5,29 Z" style="fill:#ffa022;fill-opacity:1"/><path id="path5361" d="m 5,33 -1,0 c -0.55,0 -1,0.45 -1,1 0,0.55 0.45,1 1,1 l 1,0 C 5.55,35 6,34.55 6,34 6,33.45 5.55,33 5,33 Z" style="fill:#ffa022;fill-opacity:1"/><path id="path5363" d="m 5,37 -1,0 c -0.55,0 -1,0.45 -1,1 0,0.55 0.45,1 1,1 l 1,0 C 5.55,39 6,38.55 6,38 6,37.45 5.55,37 5,37 Z" style="fill:#ffa022;fill-opacity:1"/><path id="path5365" d="m 5,41 -1,0 c -0.55,0 -1,0.45 -1,1 0,0.55 0.45,1 1,1 l 1,0 C 5.55,43 6,42.55 6,42 6,41.45 5.55,41 5,41 Z" style="fill:#ffa022;fill-opacity:1"/><path id="path5367" d="m 5,45 -1,0 c -0.55,0 -1,0.45 -1,1 0,0.55 0.45,1 1,1 l 1,0 C 5.55,47 6,46.55 6,46 6,45.45 5.55,45 5,45 Z" style="fill:#ffa022;fill-opacity:1"/><path id="path5369" d="m 5,49 -1,0 c -0.55,0 -1,0.45 -1,1 0,0.55 0.45,1 1,1 l 1,0 C 5.55,51 6,50.55 6,50 6,49.45 5.55,49 5,49 Z" style="fill:#ffa022;fill-opacity:1"/><path id="path5371" d="m 5,53 -1,0 c -0.55,0 -1,0.45 -1,1 0,0.55 0.45,1 1,1 l 1,0 C 5.55,55 6,54.55 6,54 6,53.45 5.55,53 5,53 Z" style="fill:#ffa022;fill-opacity:1"/><path id="path5373" d="m 13,19 13,0 c 0.55,0 1,-0.45 1,-1 0,-0.55 -0.45,-1 -1,-1 l -13,0 c -0.55,0 -1,0.45 -1,1 0,0.55 0.45,1 1,1 z" style="fill:#ffa022;fill-opacity:1"/><path id="path5375" d="m 30,19 10,0 c 0.55,0 1,-0.45 1,-1 0,-0.55 -0.45,-1 -1,-1 l -10,0 c -0.55,0 -1,0.45 -1,1 0,0.55 0.45,1 1,1 z" style="fill:#ffa022;fill-opacity:1"/><path id="path5377" d="m 44,19 2,0 c 0.55,0 1,-0.45 1,-1 0,-0.55 -0.45,-1 -1,-1 l -2,0 c -0.55,0 -1,0.45 -1,1 0,0.55 0.45,1 1,1 z" style="fill:#ffa022;fill-opacity:1"/><path id="path5379" d="m 35,22 c 0,0.55 0.45,1 1,1 l 15,0 c 0.55,0 1,-0.45 1,-1 0,-0.55 -0.45,-1 -1,-1 l -15,0 c -0.55,0 -1,0.45 -1,1 z" style="fill:#ffa022;fill-opacity:1"/><path id="path5381" d="m 32,21 -14,0 c -0.55,0 -1,0.45 -1,1 0,0.55 0.45,1 1,1 l 14,0 c 0.55,0 1,-0.45 1,-1 0,-0.55 -0.45,-1 -1,-1 z" style="fill:#ffa022;fill-opacity:1"/><path id="path5383" d="m 13,23 1,0 c 0.55,0 1,-0.45 1,-1 0,-0.55 -0.45,-1 -1,-1 l -1,0 c -0.55,0 -1,0.45 -1,1 0,0.55 0.45,1 1,1 z" style="fill:#ffa022;fill-opacity:1"/><path id="path5385" d="m 13,27 9,0 c 0.55,0 1,-0.45 1,-1 0,-0.55 -0.45,-1 -1,-1 l -9,0 c -0.55,0 -1,0.45 -1,1 0,0.55 0.45,1 1,1 z" style="fill:#ffa022;fill-opacity:1"/><path id="path5387" d="m 26,27 2,0 c 0.55,0 1,-0.45 1,-1 0,-0.55 -0.45,-1 -1,-1 l -2,0 c -0.55,0 -1,0.45 -1,1 0,0.55 0.45,1 1,1 z" style="fill:#ffa022;fill-opacity:1"/><path id="path5389" d="m 46,25 -14,0 c -0.55,0 -1,0.45 -1,1 0,0.55 0.45,1 1,1 l 14,0 c 0.55,0 1,-0.45 1,-1 0,-0.55 -0.45,-1 -1,-1 z" style="fill:#ffa022;fill-opacity:1"/><path id="path5391" d="m 13,31 13,0 c 0.55,0 1,-0.45 1,-1 0,-0.55 -0.45,-1 -1,-1 l -13,0 c -0.55,0 -1,0.45 -1,1 0,0.55 0.45,1 1,1 z" style="fill:#ffa022;fill-opacity:1"/><path id="path5393" d="m 41,30 c 0,-0.55 -0.45,-1 -1,-1 l -10,0 c -0.55,0 -1,0.45 -1,1 0,0.55 0.45,1 1,1 l 10,0 c 0.55,0 1,-0.45 1,-1 z" style="fill:#ffa022;fill-opacity:1"/><path id="path5395" d="m 36,35 8,0 c 0.55,0 1,-0.45 1,-1 0,-0.55 -0.45,-1 -1,-1 l -8,0 c -0.55,0 -1,0.45 -1,1 0,0.55 0.45,1 1,1 z" style="fill:#ffa022;fill-opacity:1"/><path id="path5397" d="m 17,34 c 0,0.55 0.45,1 1,1 l 14,0 c 0.55,0 1,-0.45 1,-1 0,-0.55 -0.45,-1 -1,-1 l -14,0 c -0.55,0 -1,0.45 -1,1 z" style="fill:#ffa022;fill-opacity:1"/><path id="path5399" d="m 13,35 1,0 c 0.55,0 1,-0.45 1,-1 0,-0.55 -0.45,-1 -1,-1 l -1,0 c -0.55,0 -1,0.45 -1,1 0,0.55 0.45,1 1,1 z" style="fill:#ffa022;fill-opacity:1"/><path id="path5401" d="m 13,39 9,0 c 0.55,0 1,-0.45 1,-1 0,-0.55 -0.45,-1 -1,-1 l -9,0 c -0.55,0 -1,0.45 -1,1 0,0.55 0.45,1 1,1 z" style="fill:#ffa022;fill-opacity:1"/><path id="path5403" d="m 26,39 2,0 c 0.55,0 1,-0.45 1,-1 0,-0.55 -0.45,-1 -1,-1 l -2,0 c -0.55,0 -1,0.45 -1,1 0,0.55 0.45,1 1,1 z" style="fill:#ffa022;fill-opacity:1"/><path id="path5405" d="m 31,38 c 0,0.55 0.45,1 1,1 l 15,0 c 0.55,0 1,-0.45 1,-1 0,-0.55 -0.45,-1 -1,-1 l -15,0 c -0.55,0 -1,0.45 -1,1 z" style="fill:#ffa022;fill-opacity:1"/><path id="path5407" d="m 13,43 13,0 c 0.55,0 1,-0.45 1,-1 0,-0.55 -0.45,-1 -1,-1 l -13,0 c -0.55,0 -1,0.45 -1,1 0,0.55 0.45,1 1,1 z" style="fill:#ffa022;fill-opacity:1"/><path id="path5409" d="m 40,41 -10,0 c -0.55,0 -1,0.45 -1,1 0,0.55 0.45,1 1,1 l 10,0 c 0.55,0 1,-0.45 1,-1 0,-0.55 -0.45,-1 -1,-1 z" style="fill:#ffa022;fill-opacity:1"/><path id="path5411" d="m 51,41 -7,0 c -0.55,0 -1,0.45 -1,1 0,0.55 0.45,1 1,1 l 7,0 c 0.55,0 1,-0.45 1,-1 0,-0.55 -0.45,-1 -1,-1 z" style="fill:#ffa022;fill-opacity:1"/><path id="path5413" d="m 40,45 -4,0 c -0.55,0 -1,0.45 -1,1 0,0.55 0.45,1 1,1 l 4,0 c 0.55,0 1,-0.45 1,-1 0,-0.55 -0.45,-1 -1,-1 z" style="fill:#ffa022;fill-opacity:1"/><path id="path5415" d="m 17,46 c 0,0.55 0.45,1 1,1 l 14,0 c 0.55,0 1,-0.45 1,-1 0,-0.55 -0.45,-1 -1,-1 l -14,0 c -0.55,0 -1,0.45 -1,1 z" style="fill:#ffa022;fill-opacity:1"/><path id="path5417" d="m 13,47 1,0 c 0.55,0 1,-0.45 1,-1 0,-0.55 -0.45,-1 -1,-1 l -1,0 c -0.55,0 -1,0.45 -1,1 0,0.55 0.45,1 1,1 z" style="fill:#ffa022;fill-opacity:1"/><path id="path5419" d="m 22,49 -9,0 c -0.55,0 -1,0.45 -1,1 0,0.55 0.45,1 1,1 l 9,0 c 0.55,0 1,-0.45 1,-1 0,-0.55 -0.45,-1 -1,-1 z" style="fill:#ffa022;fill-opacity:1"/><path id="path5421" d="m 28,49 -2,0 c -0.55,0 -1,0.45 -1,1 0,0.55 0.45,1 1,1 l 2,0 c 0.55,0 1,-0.45 1,-1 0,-0.55 -0.45,-1 -1,-1 z" style="fill:#ffa022;fill-opacity:1"/><path id="path5423" d="m 39,49 -7,0 c -0.55,0 -1,0.45 -1,1 0,0.55 0.45,1 1,1 l 7,0 c 0.55,0 1,-0.45 1,-1 0,-0.55 -0.45,-1 -1,-1 z" style="fill:#ffa022;fill-opacity:1"/><path id="path5425" d="m 44,49 -1,0 c -0.55,0 -1,0.45 -1,1 0,0.55 0.45,1 1,1 l 1,0 c 0.55,0 1,-0.45 1,-1 0,-0.55 -0.45,-1 -1,-1 z" style="fill:#ffa022;fill-opacity:1"/></g></g></g></svg>